<svg width="504" height="205" viewBox="0 0 -400 205" fill="none" xmlns="http://www.w3.org/2000/svg">
<g clip-path="url(#clip0_403_12117)">
<path d="M230.658 6.26873C219.504 13.2737 208.212 20.3937 199.25 30.0418C196.153 33.3596 193.278 37.0446 189.296 39.2078C186.134 40.9242 182.515 41.5502 178.987 42.2646C173.064 43.4601 167.209 44.9662 161.445 46.7768C154.077 49.0904 146.382 52.2711 142.159 58.7363C136.789 66.9622 138.747 78.1477 143.535 86.723C148.324 95.2984 155.541 102.244 161.19 110.279C176.527 132.091 180.04 161.407 198.681 180.473C208.857 190.879 222.571 197.083 237.105 197.856C251.639 198.629 265.934 193.915 277.156 184.647C287.808 175.848 295.258 163.315 307.03 156.083C317.023 149.943 329.703 147.899 337.728 139.348C345.664 130.887 346.945 118.054 345.217 106.583C343.49 95.1126 339.203 84.1307 337.624 72.6445C335.379 56.4095 338.266 38.6438 329.829 24.594C324.521 15.7466 315.324 9.77453 305.587 6.37932C295.851 2.98411 285.508 1.60169 275.225 0.787725C267.616 0.183886 240.132 0.316604 230.658 6.26873Z" fill="#5158F5"/>
<path d="M342.324 164.056H178.715C177.284 164.056 175.839 164.032 174.411 164.03C173.821 164.31 173.235 164.595 172.654 164.886C172.201 165.107 171.747 165.328 171.298 165.567C170.74 165.852 170.182 166.141 169.626 166.436C169.01 166.759 168.395 167.089 167.782 167.427C167.192 167.752 166.597 168.082 165.999 168.418C164.956 169.008 163.924 169.609 162.902 170.223C162.902 170.395 162.902 170.57 162.882 170.752C162.871 171.021 162.855 171.298 162.836 171.581C162.818 171.853 162.794 172.13 162.77 172.41H335.027C337.361 172.41 339.701 172.468 342.032 172.41C342.132 172.41 342.233 172.41 342.333 172.41C342.552 172.408 342.761 172.319 342.916 172.164C343.071 172.009 343.16 171.8 343.162 171.581V164.879C343.158 164.66 343.068 164.451 342.911 164.297C342.754 164.143 342.544 164.057 342.324 164.056Z" fill="#020D3E"/>
<path d="M332.457 164.056H327.591C327.555 162.824 327.622 161.57 327.622 160.345V66.2632C327.65 65.379 327.535 64.4961 327.281 63.6487C326.717 61.982 325.527 60.5996 323.963 59.7935C322.908 59.2471 321.822 59.0901 320.688 59.0481V57.3958H320.909H320.688V55.1508C321.543 55.1618 322.397 55.195 323.244 55.2591C325.852 55.456 329.075 56.1947 330.435 58.7096C331.51 60.7003 331.676 63.2617 331.904 65.4625C332.519 71.388 332.404 77.3689 332.315 83.3166C332.068 99.5893 331.074 115.844 331.34 132.126C331.404 136.087 331.539 140.044 331.698 143.997C331.888 148.666 332.112 153.333 332.3 158.007C332.379 160.013 332.439 162.037 332.457 164.056Z" fill="#020D3E"/>
<path d="M171.701 54.2859C171.674 54.3412 171.647 54.3965 171.623 54.4518C171.483 54.7659 171.355 55.0844 171.24 55.4073C171.108 55.77 170.993 56.1372 170.891 56.5132C170.814 56.7985 170.745 57.0883 170.69 57.3781C170.634 57.6678 170.584 57.9399 170.546 58.2208C170.508 58.5017 170.477 58.7649 170.457 59.037H159.732C158.036 59.037 156.436 59.1896 154.961 60.1562C154.03 60.7757 153.265 61.6152 152.736 62.6006C152.206 63.5859 151.927 64.6866 151.924 65.8053C151.869 69.5964 151.924 73.3897 151.924 77.1809V132.006L151.095 132.489L150.652 132.75C150.52 132.581 150.38 132.409 150.234 132.234C150.062 132.013 149.88 131.812 149.692 131.595C149.352 131.203 148.989 130.808 148.609 130.412C148.228 130.016 147.817 129.611 147.394 129.224C147.257 124.896 147.11 120.567 146.952 116.236C146.657 108.767 146.541 101.293 146.605 93.8141C146.614 92.8497 146.625 91.8861 146.638 90.9232C146.744 83.8039 147.017 76.6884 147.456 69.5765C147.589 67.4133 147.736 65.2508 147.899 63.0891C148.02 61.4833 147.938 59.7293 148.418 58.1765C149.21 55.6263 151.338 54.496 153.864 54.2284C154.572 54.1687 155.293 54.1819 156.003 54.1775C161.23 54.1377 166.456 54.1996 171.701 54.2859Z" fill="#020D3E"/>
<path d="M190.75 54.642L193.436 55.801L195.322 56.615V54.7282L190.75 54.642ZM172.631 56.5287H172.649H172.631ZM219.987 57.5196C222.936 57.5948 225.885 57.6685 228.834 57.7408C225.901 57.3346 222.932 57.2604 219.982 57.5196H219.987ZM320.684 57.3869H320.905H320.684Z" fill="#020D3E"/>
<path d="M195.326 155.63V164.057H178.714C177.283 164.057 175.839 164.033 174.41 164.031C176.032 163.252 177.676 162.507 179.343 161.797C181.187 161.009 183.061 160.275 184.948 159.56C188.402 158.244 191.893 157.008 195.326 155.63Z" fill="#92D3C2"/>
<path d="M327.615 66.2642V160.346C327.615 161.571 327.549 162.825 327.584 164.057H320.686V59.0491C321.82 59.0911 322.897 59.2481 323.961 59.7945C325.525 60.6006 326.715 61.983 327.279 63.6497C327.532 64.4973 327.645 65.3803 327.615 66.2642Z" fill="#92D3C2"/>
<path d="M191.274 72.0813C184.581 81.3712 183.864 93.302 180.402 103.914C178.498 109.749 175.594 114.974 171.102 119.223C170.217 120.057 169.301 120.846 168.359 121.603C164.313 124.836 159.772 127.433 155.309 130.034L151.927 132.005V77.1797C151.927 73.3886 151.872 69.5952 151.927 65.8041C151.93 64.6854 152.209 63.5847 152.738 62.5994C153.268 61.614 154.032 60.7745 154.964 60.155C156.439 59.1884 158.038 59.0358 159.735 59.0358H170.46C170.422 59.5362 170.412 60.0383 170.429 60.5398C170.471 61.6989 170.387 63.9417 171.586 64.4902C172.575 64.9326 173.632 65.2799 174.645 65.6691L189.666 71.4598L191.274 72.0813Z" fill="#92D3C2"/>
<path d="M311.396 42.8956C308.594 42.8956 305.628 43.15 302.945 42.1989C298.685 40.686 295.489 36.9015 294.907 32.3937C294.593 29.9606 294.803 27.3883 294.803 24.9375V17.6826C294.799 17.5145 294.849 17.3496 294.944 17.2115C292.848 17.3597 290.662 17.1849 288.57 17.1849H211.391C211.057 17.1849 210.728 17.1849 210.376 17.1849L209.341 17.1672C209.031 17.1672 208.722 17.1672 208.412 17.1672H207.97H207.697H207.437C207.26 17.1672 207.083 17.1849 206.906 17.2004L206.616 17.2247L206.348 17.2535C206.249 17.2645 206.151 17.2756 206.054 17.2911L205.767 17.3353L205.603 17.3641C206.023 19.1159 206.444 20.8684 206.866 22.6217L207.848 26.7048C207.898 26.9203 207.863 27.1469 207.751 27.3374C207.784 27.4723 207.815 27.6072 207.848 27.7421C207.989 28.3283 207.452 28.9653 206.828 28.7618L203.749 27.762L201.894 27.1604L197.167 25.6254C197.147 25.7227 197.129 25.8222 197.114 25.9218C197.098 26.0213 197.074 26.185 197.058 26.3177C196.906 27.6094 196.99 28.9587 196.99 30.2526V57.3236L199.133 58.2482L205.705 61.0838C205.792 60.9864 205.901 60.9107 206.023 60.8626C208.846 59.7426 211.763 58.8723 214.738 58.2614C216.47 57.9063 218.222 57.653 219.984 57.5028C222.932 57.2439 225.9 57.3181 228.832 57.724C229.416 57.808 230 57.9031 230.581 58.0159C230.986 58.0933 231.387 58.184 231.785 58.2835C235.027 59.0931 238.071 60.5728 241.108 61.9486C246.613 64.4436 252.048 67.1 257.456 69.8029C261.842 71.9949 266.42 74.2798 269.285 78.4292C271.432 81.5413 271.693 85.5691 269.232 88.5153C269.955 88.8006 270.623 89.0439 271.178 89.6212L274.509 93.0341L280.797 99.4773C280.909 99.5948 280.984 99.7423 281.014 99.9017C281.044 100.061 281.026 100.226 280.964 100.376C280.902 100.525 280.798 100.654 280.664 100.746C280.531 100.838 280.373 100.889 280.211 100.893H276.528C273.182 100.893 269.791 101.059 266.449 100.893L266.228 100.875L266.111 100.858C265.448 100.717 264.806 100.494 264.2 100.194C264.688 104.047 264.708 108.185 263.346 111.842C262.311 114.615 259.999 116.778 257.314 117.949C256.429 118.34 255.345 118.745 254.306 118.847C253.771 122.032 251.758 124.653 248.902 126.225C246.52 127.539 243.516 127.331 241.132 126.11C240.54 125.804 240.018 125.377 239.601 124.856C237.002 126.666 233.488 126.794 230.615 125.537C227.2 124.044 224.643 121.224 223.094 117.915C222.544 120.851 222.389 123.907 222.198 126.716C221.977 129.93 221.484 132.795 220.117 135.763C218.038 140.28 214.634 144.113 210.761 147.181C206.558 150.512 201.854 152.9 196.974 154.944V164.05H318.99C318.943 162.657 319.016 161.244 319.016 159.848V42.8956H311.396ZM239.612 43.4796C237.314 43.3491 235.439 41.887 233.822 40.3829C232.88 39.4982 231.904 38.6643 230.922 37.8327C227.786 38.0271 224.685 38.5906 221.681 39.5115C220.34 42.4333 218.584 45.2889 216.125 47.3304L216.078 47.3658C216.041 47.4016 216 47.4335 215.957 47.4609C214.599 48.3457 212.486 49.2304 210.933 48.3457C209.294 47.4167 209.111 45.2889 210.128 43.8489C211.898 41.3274 215.346 39.9804 218.124 38.9563C218.9 38.6717 219.684 38.4085 220.475 38.1667C220.577 37.9322 220.677 37.6977 220.774 37.4655C221.699 35.2337 222.468 32.8206 222.796 30.3875C221.705 29.1279 220.81 27.7112 220.141 26.185C219.515 24.6964 219.173 21.9559 221.573 21.9824C223.649 22.0001 224.275 24.358 224.494 26.0147C224.653 27.2719 224.668 28.5431 224.539 29.8036C226.629 32.1438 229.086 34.1455 231.488 36.1561C233.736 36.0212 236.038 36.1251 238.124 36.8196C239.723 37.3483 241.289 38.4277 242.07 39.9627C243.065 41.8782 241.612 43.5924 239.612 43.4796ZM290.392 94.0649L299.24 91.5876C300.273 91.2978 300.709 92.8992 299.682 93.1868L290.822 95.664C289.802 95.9516 289.366 94.3524 290.392 94.0649ZM289.747 115.412L283.281 108.53C282.549 107.752 283.724 106.577 284.454 107.356L290.919 114.228C291.649 115.016 290.479 116.19 289.747 115.412ZM296.738 105.679L287.988 102.835C286.977 102.505 287.413 100.904 288.431 101.234L297.178 104.08C298.191 104.408 297.756 106.009 296.736 105.677L296.738 105.679Z" fill="#E9EFFC"/>
<path d="M238.758 123.453C236.655 125.001 233.605 125.065 231.267 124.019C227.544 122.353 224.996 118.932 223.777 115.121C224.547 112.57 225.75 110.217 227.708 108.326C229.558 106.504 231.98 105.376 234.565 105.132C234.952 105.101 235.337 105.066 235.721 105.032C236.606 110.221 236.504 115.514 237.825 120.646C238.049 121.608 238.362 122.548 238.758 123.453Z" fill="#EA855E"/>
<path d="M252.687 118.699C252.245 121.285 250.542 123.384 248.264 124.696C246.454 125.737 243.765 125.74 241.648 124.499C241.227 124.243 240.87 123.896 240.602 123.484C240.531 123.38 240.465 123.273 240.403 123.163C239.739 121.991 239.46 120.451 239.202 119.299C238.716 117.077 238.375 114.827 238.182 112.561C237.945 109.987 237.777 107.419 237.361 104.866C239.622 104.627 241.874 104.316 244.119 103.931C245.926 103.621 247.777 103.267 249.602 102.776C250.228 105.134 250.21 107.784 250.195 110.157C250.179 112.59 249.728 115.609 251.314 117.697C251.657 118.165 252.137 118.515 252.687 118.699Z" fill="#EA855E"/>
<path d="M262.02 110.646C261.357 112.827 259.647 114.895 257.395 116.094C256.413 116.605 255.363 116.972 254.276 117.184C253.867 117.268 254.276 117.288 253.743 117.248C253.49 117.247 253.243 117.177 253.025 117.047C252.808 116.918 252.63 116.732 252.509 116.51C251.295 114.588 251.877 111.517 251.859 109.399C251.841 107.12 251.81 104.583 251.195 102.321C254.128 101.42 256.946 100.166 259.337 98.2861L262.454 99.4849C263.015 103.154 263.115 107.061 262.02 110.646Z" fill="#EA855E"/>
<path d="M260.288 95.1496C256.47 99.4451 250.434 101.064 245.026 102.09C241.775 102.703 238.488 103.126 235.192 103.418C234.579 103.471 233.951 103.482 233.341 103.564C231.739 103.785 230.047 104.594 228.696 105.457C225.27 107.642 223.35 111.037 222.237 114.762C222.144 114.89 222.098 115.046 222.107 115.205C221.479 117.572 221.066 119.991 220.873 122.433C220.634 125.034 220.651 127.691 220.209 130.27C219.464 134.693 216.849 138.821 213.854 142.065C208.957 147.374 202.713 150.736 196.159 153.479C192.477 155.027 188.699 156.372 185.005 157.759C184.746 157.856 184.487 157.953 184.229 158.055C179.069 160.028 174.029 162.3 169.135 164.861C168.283 165.303 167.435 165.757 166.593 166.221C166.004 166.547 165.414 166.877 164.824 167.212C164.247 167.535 163.674 167.876 163.101 168.201C160.05 169.979 157.06 171.866 154.13 173.861C151.918 175.365 149.743 176.924 147.607 178.537C145.919 176.752 144.423 174.795 143.141 172.7C138.961 166.042 136.194 158.422 134.656 150.736C134.233 148.686 133.92 146.614 133.721 144.529L147.605 136.445L148.711 135.801L149.772 135.184L151.099 134.415L153.849 132.807C159.047 129.779 164.366 126.835 169.111 123.116C169.553 122.776 169.973 122.426 170.396 122.072C175.025 118.208 178.61 113.243 180.822 107.633C183.034 102.121 184.176 96.2688 185.584 90.5246C187.133 84.2495 189.011 77.9657 192.87 72.7014L196.157 73.9688L218.424 82.5531C214.085 84.3865 210.072 86.9113 206.542 90.0291C204.913 91.4923 203.432 93.1109 202.118 94.8621C201.472 95.7114 202.912 96.5387 203.549 95.6982C208.521 89.1333 216.017 84.9286 223.728 82.3916C226.32 81.5356 228.968 80.8587 231.653 80.3655C232.018 80.2992 232.385 80.2372 232.759 80.1775L233.182 80.1134L233.485 80.0713C234.686 79.9143 235.891 79.7882 237.101 79.702C238.87 79.5737 240.64 79.5073 242.409 79.4918C242.449 79.5382 242.494 79.5805 242.542 79.6179C245.9 82.2522 245.276 86.6959 245.971 90.4118C246.307 92.2078 247.868 92.1813 249.399 92.1547C251.252 92.1171 253.206 91.8185 254.929 91.1041C258.198 89.746 258.649 86.3154 257.393 83.3051C256.888 82.0832 256.113 80.9919 255.125 80.1134C256.392 80.3036 257.611 80.7346 258.715 81.383C261.005 82.7742 262.383 85.1432 262.918 87.7222C263.36 90.038 262.009 93.2142 260.288 95.1496Z" fill="#EA855E"/>
<path d="M269.399 83.1039C269.371 84.8888 268.822 86.5743 267.61 87.8594L264.339 86.5123C263.961 85.1003 263.321 83.7722 262.452 82.5973C260.561 80.0581 257.643 78.6381 254.525 78.3329C251.207 78.0099 247.869 77.8617 244.536 77.833L223.833 68.9015L207.781 61.9761C214.37 59.5674 221.495 58.3951 228.493 59.3484C231.844 59.8063 234.744 60.9388 237.832 62.2902C243.308 64.6856 248.687 67.3023 254.047 69.9499C258.008 71.9096 262.297 73.7322 265.593 76.727C267.238 78.22 268.804 80.1001 269.311 82.3186C269.393 82.5718 269.423 82.8388 269.399 83.1039Z" fill="#EA855E"/>
<path d="M255.771 88.5495C254.886 89.6377 253.227 89.9695 251.938 90.2194C251.094 90.3816 250.238 90.4711 249.378 90.4871C248.766 90.5004 247.83 90.6707 247.576 90.0713C247.33 89.5094 247.428 88.5229 247.372 87.9036C247.306 87.1626 247.233 86.4217 247.129 85.6918C246.826 83.5042 246.2 81.2083 244.773 79.4985C246.731 79.5273 248.691 79.6091 250.644 79.7197C253.148 80.0869 255.222 82.0267 256.014 84.3978C256.45 85.694 256.7 87.3993 255.771 88.5495Z" fill="#E9EFFC"/>
<path d="M255.771 88.5495C254.886 89.6377 253.227 89.9695 251.938 90.2194C251.094 90.3816 250.238 90.4711 249.378 90.4871C248.766 90.5004 247.83 90.6707 247.576 90.0713C247.33 89.5094 247.428 88.5229 247.372 87.9036C247.306 87.1626 247.233 86.4217 247.129 85.6918C246.826 83.5042 246.2 81.2083 244.773 79.4985C246.731 79.5273 248.691 79.6091 250.644 79.7197C253.148 80.0869 255.222 82.0267 256.014 84.3978C256.45 85.694 256.7 87.3993 255.771 88.5495Z" fill="#E9EFFC"/>
<path d="M231.796 58.3009L214.738 58.2788C216.471 57.9237 218.223 57.6703 219.985 57.5201C222.933 57.2613 225.901 57.3354 228.832 57.7413C229.416 57.8254 230 57.9205 230.582 58.0333C230.998 58.1107 231.398 58.2014 231.796 58.3009Z" fill="#020D3E"/>
<path d="M280.81 99.4858L274.521 93.0427L271.19 89.6298C270.635 89.0591 269.967 88.8158 269.244 88.5239C271.706 85.5777 271.445 81.5498 269.297 78.4377C266.433 74.2905 261.854 72.0056 257.468 69.8115C252.06 67.1086 246.63 64.4522 241.12 61.9572C238.083 60.5814 235.04 59.1016 231.797 58.2921L214.739 58.27C211.764 58.8808 208.848 59.7512 206.024 60.8711C205.903 60.9192 205.794 60.995 205.706 61.0923L199.13 58.2678L196.987 57.3432L196.157 56.9849L196.126 56.9716L195.328 56.6266L193.441 55.8126L190.756 54.6536L188.425 53.6472L178.126 49.1991C177.518 48.9381 176.781 48.4559 176.151 48.801C175.43 49.1947 174.771 49.9423 174.224 50.5373C173.195 51.6537 172.344 52.922 171.701 54.2975C171.674 54.3528 171.648 54.4081 171.623 54.4634C171.483 54.7775 171.356 55.096 171.241 55.4189C171.108 55.7816 170.993 56.1488 170.891 56.5248C170.814 56.8101 170.745 57.0999 170.69 57.3897C170.635 57.6794 170.584 57.9515 170.546 58.2324C170.509 58.5133 170.478 58.7765 170.458 59.0486C170.42 59.549 170.409 60.0511 170.427 60.5526C170.469 61.7116 170.385 63.9545 171.583 64.503C172.572 64.9454 173.629 65.2927 174.642 65.6819L189.663 71.4726L191.273 72.0941C184.58 81.384 183.864 93.3148 180.402 103.927C178.498 109.762 175.594 114.987 171.101 119.236C170.217 120.069 169.301 120.859 168.359 121.616C164.313 124.849 159.772 127.446 155.309 130.047L151.927 132.018L151.097 132.5L150.655 132.761C150.522 132.593 150.383 132.42 150.237 132.246C150.064 132.025 149.883 131.823 149.695 131.607C149.354 131.215 148.992 130.819 148.611 130.423C148.231 130.027 147.819 129.622 147.397 129.235C143.833 125.96 139.155 123.527 135.422 127.504C133.557 129.494 132.73 132.303 132.303 134.931C131.688 138.731 131.808 142.628 132.279 146.433C133.385 155.28 136.227 164.128 140.684 171.869C142.413 174.877 144.433 177.795 146.919 180.23C148.675 181.951 150.816 183.612 153.267 184.158C160.055 185.671 162.236 178.089 162.778 172.415C162.802 172.135 162.827 171.858 162.844 171.586C162.862 171.314 162.88 171.026 162.891 170.757C162.891 170.575 162.906 170.4 162.911 170.228C163.943 169.616 164.975 169.014 166.007 168.423C166.597 168.087 167.191 167.756 167.79 167.432C168.404 167.096 169.018 166.766 169.635 166.441C170.191 166.146 170.748 165.856 171.307 165.572C171.749 165.351 172.209 165.114 172.663 164.891C173.245 164.596 173.831 164.31 174.419 164.035C176.041 163.256 177.685 162.511 179.352 161.801C181.196 161.013 183.07 160.279 184.956 159.564C188.411 158.253 191.908 157.012 195.334 155.634C195.613 155.523 195.89 155.413 196.164 155.298L196.993 154.955C201.873 152.911 206.575 150.531 210.78 147.191C214.653 144.123 218.057 140.29 220.136 135.774C221.503 132.805 221.999 129.941 222.217 126.727C222.408 123.918 222.562 120.861 223.113 117.926C224.681 121.244 227.23 124.055 230.634 125.548C233.509 126.805 237.021 126.676 239.62 124.867C240.037 125.387 240.559 125.815 241.151 126.121C243.535 127.342 246.539 127.55 248.921 126.236C251.777 124.663 253.787 122.034 254.325 118.857C255.364 118.756 256.439 118.351 257.333 117.959C260.018 116.789 262.33 114.626 263.365 111.852C264.727 108.196 264.707 104.058 264.219 100.205C264.825 100.505 265.467 100.728 266.13 100.868L266.247 100.886L266.468 100.904C269.81 101.07 273.201 100.904 276.547 100.904H280.23C280.392 100.899 280.549 100.847 280.682 100.754C280.816 100.662 280.919 100.533 280.98 100.383C281.042 100.233 281.058 100.068 281.028 99.9091C280.998 99.7499 280.922 99.6029 280.81 99.4858ZM228.475 59.356C231.826 59.8139 234.726 60.9463 237.813 62.2978C243.29 64.6932 248.669 67.3099 254.028 69.9575C257.99 71.9172 262.279 73.7397 265.574 76.7346C267.22 78.2276 268.786 80.1077 269.293 82.3262C269.378 82.5764 269.412 82.8411 269.394 83.1048C269.366 84.8898 268.817 86.5752 267.605 87.8603L264.334 86.5133C263.958 85.1016 263.319 83.7734 262.451 82.5983C260.56 80.059 257.643 78.639 254.524 78.3338C251.206 78.0109 247.868 77.8627 244.535 77.8339L223.832 68.9024L207.781 61.9771C214.357 59.575 221.485 58.4027 228.479 59.356H228.475ZM256.015 84.3943C256.446 85.686 256.678 87.4002 255.767 88.5504C254.882 89.6386 253.223 89.9704 251.934 90.2203C251.09 90.3825 250.234 90.472 249.375 90.488C248.762 90.5013 247.826 90.6716 247.572 90.0722C247.327 89.5103 247.424 88.5238 247.369 87.9045C247.302 87.1635 247.229 86.4226 247.125 85.6927C246.822 83.5051 246.196 81.2092 244.77 79.4994C246.727 79.5282 248.687 79.61 250.64 79.7206C253.161 80.0834 255.227 82.0232 256.019 84.3943H256.015ZM182.977 54.5076C183.33 54.2121 183.704 53.9423 184.096 53.7003C184.133 53.6783 184.168 53.6523 184.2 53.6229L186.392 54.5695L189.073 55.7263L191.753 56.8831L194.952 58.2633L196.148 58.7809L199.084 60.0461L204.735 62.4792L235.533 75.7658L240.465 77.8936C236.07 78.043 231.7 78.6178 227.415 79.61L208.615 71.6982L197.54 67.0356L196.133 66.4428L179.599 59.4799C179.743 59.0571 179.911 58.6428 180.101 58.239C180.355 57.7002 180.65 57.1824 180.986 56.6907C181.543 55.8728 182.214 55.1378 182.977 54.5076ZM177.394 64.9719L172.424 63.0542C172.074 61.4708 172.015 59.8368 172.251 58.2324H172.181C172.181 58.1992 172.181 58.166 172.181 58.1351L172.263 58.1705L172.408 58.2324L177.657 60.4442C177.331 61.9264 177.242 63.4509 177.394 64.9609V64.9719ZM178.104 58.8473L176.66 58.2368L172.652 56.5491H172.632C172.741 56.1791 172.869 55.8151 173.017 55.4587C173.172 55.0764 173.348 54.7028 173.543 54.3395C173.707 54.0313 173.885 53.7298 174.076 53.4349C174.662 52.5367 175.353 51.7124 176.136 50.9797C176.37 50.7585 176.578 50.5749 176.761 50.4223L182.411 52.8553C181.767 53.3313 181.174 53.8724 180.641 54.47C180.047 55.1403 179.528 55.8731 179.093 56.6553C178.803 57.1669 178.548 57.6975 178.33 58.2434C178.25 58.4292 178.179 58.6305 178.104 58.8362V58.8473ZM179.133 65.6421C179.14 65.5812 179.14 65.5195 179.133 65.4585C178.89 64.0096 178.913 62.5285 179.201 61.0879L190.196 65.7173L196.168 68.2322L196.345 68.3052L220.141 78.3271L224.819 80.2979C223.421 80.6931 222.042 81.1458 220.682 81.656L204.257 75.3234L196.168 72.2047L193.541 71.1917L179.133 65.6421ZM151.095 134.261H151.172C151.15 134.292 151.124 134.321 151.095 134.347V134.261ZM133.553 139.335C133.628 136.528 133.951 133.568 135.117 130.983C136.081 128.842 137.791 126.964 140.328 127.152C143.081 127.358 145.503 129.319 147.459 131.476C147.881 131.941 148.282 132.414 148.658 132.881C148.85 133.122 149.038 133.358 149.217 133.593L148.677 133.907L147.554 134.57L133.597 142.701C133.539 141.564 133.524 140.443 133.553 139.324V139.335ZM154.242 182.659C152.172 182.42 150.303 181.088 148.792 179.73C152.789 176.733 156.93 173.893 161.197 171.265C160.964 175.789 159.766 183.291 154.242 182.647V182.659ZM222.226 114.774C222.18 114.922 222.138 115.075 222.096 115.217C221.468 117.584 221.055 120.003 220.862 122.445C220.623 125.046 220.64 127.703 220.198 130.282C219.453 134.705 216.838 138.833 213.843 142.077C208.946 147.386 202.702 150.748 196.148 153.491C192.466 155.039 188.688 156.384 184.994 157.771C184.735 157.868 184.476 157.965 184.218 158.067C179.058 160.04 174.018 162.312 169.124 164.873C168.272 165.315 167.424 165.769 166.582 166.233C165.993 166.559 165.403 166.889 164.813 167.224C164.236 167.547 163.663 167.888 163.09 168.213C160.039 169.991 157.049 171.878 154.119 173.873C151.907 175.377 149.732 176.936 147.596 178.549C145.908 176.764 144.412 174.807 143.13 172.712C138.95 166.054 136.183 158.434 134.645 150.748C134.225 148.694 133.916 146.618 133.721 144.53L147.605 136.446L148.711 135.802L149.772 135.185L151.099 134.416L153.849 132.808C159.047 129.78 164.366 126.836 169.111 123.117C169.553 122.777 169.973 122.427 170.396 122.073C175.025 118.209 178.61 113.244 180.822 107.634C183.034 102.122 184.176 96.2698 185.585 90.5256C187.133 84.2505 189.011 77.9666 192.87 72.7024L196.157 73.9698L218.424 82.554C214.085 84.3875 210.073 86.9123 206.542 90.0301C204.914 91.4932 203.432 93.1119 202.118 94.863C201.472 95.7124 202.912 96.5396 203.549 95.6991C208.522 89.1343 216.018 84.9296 223.728 82.3926C226.32 81.5366 228.968 80.8597 231.653 80.3665C232.018 80.3001 232.385 80.2382 232.759 80.1785L233.182 80.1143L233.485 80.0723C234.686 79.9153 235.891 79.7892 237.101 79.7029C238.871 79.5747 240.64 79.5083 242.41 79.4928C242.449 79.5392 242.494 79.5814 242.542 79.6189C245.9 82.2532 245.276 86.6968 245.971 90.4128C246.307 92.2088 247.868 92.1823 249.399 92.1557C251.253 92.1181 253.206 91.8195 254.929 91.1051C258.198 89.747 258.649 86.3164 257.393 83.306C256.888 82.0842 256.113 80.9929 255.126 80.1143C256.392 80.3046 257.611 80.7355 258.715 81.384C261.005 82.7752 262.383 85.1441 262.918 87.7232C263.394 90.0478 262.051 93.213 260.321 95.1594C256.504 99.4549 250.467 101.074 245.059 102.1C241.808 102.713 238.521 103.135 235.225 103.427C234.613 103.48 233.985 103.492 233.374 103.573C231.773 103.795 230.081 104.604 228.729 105.467C225.259 107.643 223.339 111.038 222.226 114.763V114.774ZM231.266 124.031C227.544 122.365 224.996 118.944 223.777 115.133C224.547 112.582 225.75 110.229 227.707 108.338C229.557 106.516 231.979 105.388 234.564 105.144C234.951 105.113 235.336 105.077 235.721 105.044C236.606 110.233 236.504 115.526 237.824 120.658C238.049 121.621 238.361 122.561 238.758 123.467C236.654 124.993 233.604 125.066 231.264 124.02L231.266 124.031ZM248.269 124.708C246.459 125.75 243.77 125.752 241.653 124.511C241.232 124.255 240.875 123.908 240.607 123.496C240.536 123.392 240.47 123.285 240.408 123.175C239.744 122.003 239.466 120.463 239.207 119.311C238.721 117.089 238.381 114.839 238.187 112.573C237.95 109.999 237.782 107.431 237.367 104.878C239.627 104.639 241.879 104.328 244.124 103.943C245.931 103.633 247.782 103.279 249.607 102.788C250.233 105.146 250.215 107.796 250.2 110.169C250.184 112.602 249.733 115.621 251.319 117.709C251.661 118.177 252.139 118.528 252.688 118.714C252.244 121.286 250.543 123.385 248.269 124.697V124.708ZM262.02 110.658C261.356 112.839 259.647 114.907 257.395 116.106C256.413 116.617 255.363 116.984 254.276 117.196C253.867 117.28 254.276 117.3 253.743 117.26C253.49 117.259 253.242 117.189 253.025 117.059C252.808 116.93 252.63 116.744 252.509 116.522C251.295 114.6 251.876 111.529 251.859 109.41C251.841 107.132 251.81 104.595 251.195 102.333C254.128 101.432 256.946 100.178 259.337 98.2981L262.453 99.4969C263.015 103.155 263.115 107.061 262.02 110.647V110.658ZM266.07 99.1231C265.559 98.9284 265.05 98.7272 264.539 98.5303L260.753 97.0727C263.026 94.8498 264.787 91.6758 264.639 88.4287L267.587 89.6408C268.047 89.8311 268.507 90.0412 268.972 90.2336C269.012 93.3125 268.233 96.8405 266.07 99.112V99.1231ZM273.59 99.2536H268.109C269.697 97.0661 270.452 94.1951 270.598 91.4745C271.867 92.8657 273.21 94.1995 274.555 95.531C274.771 96.8095 274.355 98.3423 273.599 99.2425L273.59 99.2536ZM275.548 99.2536C275.881 98.5982 276.101 97.8905 276.196 97.1612C276.51 97.4753 276.821 97.7901 277.129 98.1056L278.248 99.2536H275.548Z" fill="#020D3E"/>
<path d="M172.407 58.2209H172.186C172.186 58.1877 172.186 58.1545 172.186 58.1235L172.267 58.1589L172.407 58.2209Z" fill="#EA855E"/>
<path d="M196.331 68.2937L196.154 68.4751V68.2207L196.331 68.2937Z" fill="#8043F0"/>
<path d="M273.598 99.242H268.117C269.705 97.0545 270.46 94.1835 270.606 91.4629C271.875 92.8542 273.218 94.1879 274.563 95.5195C274.77 96.809 274.355 98.3418 273.598 99.242Z" fill="#E9EFFC"/>
<path d="M177.394 64.9604L172.424 63.0427C172.074 61.4592 172.015 59.8252 172.251 58.2208H172.406L177.655 60.4327C177.329 61.9185 177.24 63.4468 177.394 64.9604Z" fill="#EA855E"/>
<path d="M182.41 52.8394C181.767 53.3154 181.174 53.8565 180.641 54.4541C180.047 55.1244 179.528 55.8571 179.093 56.6394C178.803 57.151 178.548 57.6816 178.33 58.2275C178.25 58.4288 178.175 58.63 178.108 58.8357L176.664 58.2253L172.656 56.5376H172.641C172.749 56.1676 172.878 55.8035 173.025 55.4472C173.181 55.0649 173.356 54.6912 173.552 54.328C173.716 54.0198 173.893 53.7182 174.085 53.4233C174.67 52.5252 175.362 51.7009 176.144 50.9682C176.379 50.747 176.587 50.5634 176.77 50.4108L182.41 52.8394Z" fill="#EA855E"/>
<path d="M224.806 80.2865C223.408 80.6817 222.029 81.1343 220.67 81.6445L204.244 75.312L196.155 72.1932L193.528 71.1802L179.133 65.6307C179.141 65.5697 179.141 65.508 179.133 65.4471C178.89 63.9981 178.914 62.5171 179.202 61.0764L190.197 65.7059L196.169 68.2207V68.4751L196.346 68.2937L220.141 78.3157L224.806 80.2865Z" fill="#8043F0"/>
<path d="M240.472 77.8866C236.076 78.0359 231.706 78.6108 227.422 79.603L208.621 71.6911L197.546 67.0285L196.139 66.4358L179.605 59.4728C179.749 59.05 179.917 58.6358 180.108 58.232C180.361 57.6931 180.657 57.1754 180.992 56.6836C181.542 55.8698 182.203 55.1372 182.956 54.5072C183.31 54.2117 183.684 53.9419 184.076 53.6998C184.113 53.6778 184.148 53.6519 184.18 53.6224L186.372 54.5691L189.052 55.7259L191.733 56.8827L194.931 58.2629L196.128 58.7805L199.063 60.0457L204.715 62.4787L235.513 75.7654L240.472 77.8866Z" fill="#8043F0"/>
<path d="M268.971 90.2221C269.011 93.3187 268.232 96.84 266.069 99.1116C265.558 98.9169 265.05 98.7157 264.539 98.5188L260.752 97.0612C263.026 94.8383 264.786 91.6643 264.638 88.4172L267.587 89.6293C268.047 89.8196 268.507 90.0297 268.971 90.2221Z" fill="#8043F0"/>
<path d="M278.257 99.2421H275.557C275.89 98.5867 276.11 97.879 276.205 97.1497C276.519 97.4637 276.83 97.7786 277.138 98.0941L278.257 99.2421Z" fill="#8043F0"/>
<path d="M154.256 182.538C152.266 182.309 150.456 181.05 148.967 179.727C152.872 176.804 156.914 174.031 161.076 171.459C160.954 173.696 160.588 176.578 159.607 178.849C159.101 180.02 158.435 181.021 157.561 181.689C156.691 182.355 155.609 182.696 154.256 182.538L154.256 182.538Z" fill="#5158F5" stroke="#5158F5" stroke-width="0.221186"/>
<path d="M149.053 133.55L148.622 133.801L148.622 133.801L147.499 134.464L147.498 134.465L133.699 142.504C133.649 141.449 133.637 140.392 133.664 139.336C133.739 136.533 134.061 133.592 135.218 131.026L135.218 131.026C136.176 128.9 137.854 127.078 140.32 127.26C143.029 127.463 145.425 129.396 147.377 131.549L147.377 131.549C147.798 132.011 148.197 132.483 148.572 132.948L148.572 132.948L148.573 132.949C148.737 133.148 148.898 133.349 149.053 133.55Z" fill="#5158F5" stroke="#5158F5" stroke-width="0.221186"/>
<path d="M319.028 41.0797V41.2367H313.129C310.809 41.2367 308.437 41.3827 306.124 41.1991C301.497 40.8298 297.515 37.3262 296.635 32.7631C296.193 30.4672 296.462 27.9103 296.462 25.59V18.3683C303.064 25.0039 309.666 31.6483 316.267 38.3016C317.185 39.2262 318.105 40.1522 319.028 41.0797Z" fill="#96B2F3"/>
<path d="M196.981 154.95V164.056H195.322V155.629C195.601 155.519 195.877 155.408 196.152 155.293L196.981 154.95Z" fill="#020D3E"/>
<path d="M320.225 39.9333C316.812 36.3323 313.223 32.884 309.726 29.365L297.381 16.9387C296.833 16.388 296.302 15.5961 295.488 15.5254C294.674 15.4546 293.811 15.5254 292.988 15.5254H210.066C209.274 15.5254 208.48 15.5254 207.688 15.5254C206.857 15.5313 206.028 15.6157 205.213 15.7775C205.341 16.3084 205.467 16.8392 205.596 17.37L205.761 17.3435C205.857 17.3258 205.954 17.3125 206.049 17.2993C206.144 17.286 206.244 17.2727 206.343 17.2617L206.611 17.2329L206.901 17.2086C207.078 17.1931 207.254 17.1842 207.431 17.1754H207.692H207.964H208.407C208.716 17.1754 209.026 17.1754 209.336 17.1754L210.371 17.1931C210.714 17.1931 211.052 17.1931 211.386 17.1931H288.565C290.657 17.1931 292.842 17.3678 294.939 17.2196C294.843 17.3577 294.794 17.5227 294.798 17.6908V24.9457C294.798 27.3964 294.577 29.9622 294.902 32.4019C295.483 36.9097 298.68 40.6941 302.94 42.2071C305.623 43.1582 308.589 42.9038 311.391 42.9038H319.022V159.869C319.022 161.258 318.949 162.672 318.996 164.072H320.681V43.8107C320.685 42.6804 321.066 40.8224 320.225 39.9333ZM319.027 41.2361H313.128C310.807 41.2361 308.436 41.382 306.123 41.1984C301.495 40.8291 297.514 37.3255 296.634 32.7624C296.191 30.4665 296.461 27.9096 296.461 25.5893V18.3676C303.063 25.0032 309.664 31.6476 316.266 38.3009C317.183 39.2284 318.103 40.1545 319.027 41.079V41.2361Z" fill="#020D3E"/>
<path d="M197.162 25.6336C197.142 25.7309 197.125 25.8304 197.109 25.93C197.094 26.0295 197.069 26.1932 197.054 26.3259C196.901 27.6176 196.985 28.9668 196.985 30.2608V57.3318L196.156 56.9735V56.9624H196.125L195.326 56.6173V28.1308C195.323 27.124 195.424 26.1196 195.627 25.1337L197.162 25.6336Z" fill="#020D3E"/>
<path d="M207.746 27.3454C207.858 27.1548 207.893 26.9283 207.843 26.7128L206.861 22.6297C206.439 20.8779 206.018 19.1253 205.598 17.3721H205.547L205.596 17.361C205.467 16.8302 205.341 16.2993 205.213 15.7685C204.302 11.9832 203.392 8.19874 202.483 4.41498C202.231 3.37246 201.981 2.33067 201.731 1.28962C201.568 0.612789 200.542 0.460165 200.214 1.09055L196.337 8.56665L191.353 1.09055C191.287 0.98334 191.198 0.892237 191.092 0.823918C190.987 0.755599 190.867 0.71178 190.742 0.695667C190.617 0.679554 190.49 0.691559 190.371 0.730794C190.251 0.770029 190.142 0.835509 190.051 0.922442L181.685 7.67748C181.587 7.74604 181.51 7.83977 181.461 7.94878C181.412 8.05779 181.393 8.17802 181.407 8.29679C181.406 8.38692 181.425 8.47617 181.46 8.55907C181.495 8.64197 181.547 8.7168 181.612 8.77899C181.537 8.84796 181.479 8.93386 181.443 9.0296C181.407 9.12535 181.395 9.22821 181.407 9.32974C181.407 9.43693 181.432 9.54259 181.481 9.63824C181.529 9.73389 181.599 9.81686 181.685 9.88049L187.525 14.7024L181.853 18.1551C181.752 18.2159 181.665 18.2977 181.598 18.3949C181.531 18.4921 181.486 18.6025 181.465 18.7187C181.444 18.8349 181.448 18.9543 181.477 19.0688C181.506 19.1833 181.559 19.2903 181.632 19.3826C181.549 19.4906 181.492 19.6173 181.468 19.7517C181.444 19.8862 181.453 20.0245 181.494 20.1548C181.534 20.2852 181.606 20.4037 181.703 20.5004C181.799 20.597 181.918 20.6688 182.048 20.7098L195.622 25.1158L197.157 25.6157L201.884 27.1507L203.74 27.7524L206.819 28.7521C207.442 28.9556 207.98 28.3097 207.838 27.7324C207.819 27.6152 207.779 27.4803 207.746 27.3454ZM205.62 25.598L204.072 25.0937L198.004 23.1229L196.436 22.6142L185.574 19.0752L185.353 19.0066L184.311 18.6682L184.24 18.6461L189.619 15.3725L190.084 15.0894C190.173 15.0324 190.248 14.957 190.305 14.8683C190.437 14.7136 190.504 14.5144 190.493 14.3116C190.483 14.1087 190.395 13.9177 190.247 13.7778L184.202 8.78341L183.568 8.2592L190.438 2.70962L195.7 10.6016C195.831 10.7928 196.029 10.9278 196.255 10.9798C196.345 11.0018 196.439 11.0085 196.531 10.9997C196.658 10.992 196.78 10.9512 196.886 10.8813C196.991 10.8114 197.077 10.7149 197.133 10.6016C198.299 8.35283 199.466 6.10262 200.632 3.85095C201.622 7.95912 202.61 12.0665 203.596 16.1732C203.724 16.7085 203.853 17.2416 203.983 17.7768C204.467 19.7941 204.952 21.8106 205.439 23.8263C205.452 23.886 205.467 23.9435 205.481 24.0032C205.613 24.5562 205.746 25.1092 205.881 25.6643L205.62 25.598Z" fill="#020D3E"/>
<path d="M205.893 25.6886L205.621 25.6002L204.072 25.0959L198.005 23.1251L196.437 22.6163L185.574 19.0774L185.353 19.0088L184.312 18.6704L184.241 18.6483L189.62 15.3747L190.085 15.0916C190.173 15.0346 190.249 14.9591 190.306 14.8704C190.437 14.7158 190.505 14.5166 190.494 14.3137C190.483 14.1109 190.395 13.9199 190.248 13.78L184.203 8.78559L183.568 8.26138L190.438 2.71179L195.7 10.6037C195.831 10.795 196.03 10.9299 196.256 10.982C196.346 11.0039 196.439 11.0107 196.532 11.0019C196.658 10.9942 196.781 10.9533 196.886 10.8835C196.992 10.8136 197.077 10.7171 197.134 10.6037C198.3 8.355 199.466 6.1048 200.633 3.85312C201.622 7.96129 202.61 12.0687 203.597 16.1754C203.725 16.7107 203.853 17.2437 203.984 17.779C204.467 19.7962 204.953 21.8127 205.439 23.8285C205.453 23.8882 205.468 23.9457 205.481 24.0054C205.625 24.5805 205.758 25.1357 205.893 25.6886Z" fill="#E9EFFC"/>
<path d="M212.063 44.1361C213.636 42.5878 215.839 41.6168 217.863 40.8183C218.4 40.5971 218.944 40.4047 219.495 40.2145C218.354 42.4042 216.918 44.4767 215.071 46.0538C214.202 46.6134 212.587 47.4893 211.652 46.8147C210.561 46.0405 211.358 44.8174 212.063 44.1361Z" fill="#E9EFFC"/>
<path d="M222.969 27.8524C222.298 26.952 221.776 25.9508 221.42 24.8862C221.29 24.4638 221.053 23.6166 221.765 23.7029C222.283 23.7648 222.504 24.6164 222.619 25.03C222.802 25.7091 222.91 26.4064 222.94 27.1092C222.96 27.3547 222.966 27.6024 222.969 27.8524Z" fill="#E9EFFC"/>
<path d="M228.685 36.4189C226.598 36.6781 224.529 37.0712 222.492 37.5956C223.241 35.7704 223.82 33.8801 224.222 31.9487C225.704 33.4506 227.343 34.8242 228.887 36.1225L229.17 36.3614L228.685 36.4189Z" fill="#E9EFFC"/>
<path d="M235.64 39.7964C234.883 39.1329 234.142 38.4693 233.393 37.7903C233.71 37.7991 234.026 37.8124 234.341 37.8301C235.422 37.8759 236.493 38.0519 237.531 38.3543C238.708 38.7192 240.488 39.6814 240.701 41.0085C240.9 42.2472 238.997 41.7628 238.34 41.5195C237.334 41.1612 236.438 40.4976 235.64 39.7964Z" fill="#E9EFFC"/>
<path d="M221.787 23.5928C221.589 23.5688 221.432 23.6073 221.324 23.7124C221.219 23.8143 221.182 23.9583 221.175 24.0976C221.16 24.3743 221.259 24.7105 221.323 24.9186L221.323 24.9186L221.324 24.9207C221.68 25.9965 222.205 27.009 222.879 27.92L223.082 28.1937L223.079 27.8533C223.078 27.7346 223.073 27.6166 223.069 27.5007L223.068 27.4765C223.063 27.3523 223.059 27.2304 223.059 27.1089H223.059L223.059 27.1041C223.028 26.3933 222.919 25.6879 222.734 25.0009L222.734 25.0001C222.731 24.9878 222.727 24.9752 222.723 24.9621C222.667 24.757 222.582 24.4518 222.451 24.1853C222.314 23.9085 222.106 23.631 221.787 23.5928ZM221.787 23.5928C221.787 23.5928 221.787 23.5928 221.787 23.5928L221.774 23.7026L221.787 23.5928C221.787 23.5928 221.787 23.5928 221.787 23.5928ZM231.435 36.2313L231.469 36.2595L231.512 36.2569C233.744 36.1246 236.031 36.229 238.107 36.9151C239.687 37.4376 241.225 38.5017 241.989 40.0033C242.46 40.9305 242.342 41.7947 241.88 42.4126C241.416 43.0335 240.595 43.4184 239.637 43.3596L239.636 43.3596C237.381 43.2337 235.531 41.798 233.915 40.2925C232.971 39.4125 231.994 38.5707 231.011 37.7387L230.977 37.71L230.933 37.7127C227.788 37.9077 224.678 38.4728 221.666 39.3962L221.619 39.4107L221.598 39.4558C220.261 42.37 218.509 45.208 216.073 47.2343L216.029 47.2683L216.028 47.2677L216.019 47.2767C215.987 47.3072 215.953 47.3343 215.915 47.3576L215.915 47.3576L215.914 47.3587C215.241 47.7967 214.384 48.2326 213.507 48.4499C212.63 48.6674 211.746 48.663 211.006 48.2401L211.006 48.2399C209.437 47.3507 209.247 45.303 210.236 43.9032L210.236 43.9031C211.112 42.6616 212.4 41.7044 213.822 40.9286C215.243 40.1529 216.791 39.5626 218.18 39.0505L218.18 39.0505C218.954 38.7652 219.735 38.5027 220.525 38.2629L220.574 38.2481L220.594 38.2011C220.643 38.0892 220.689 37.9787 220.735 37.87C220.788 37.7442 220.84 37.6208 220.893 37.5005L220.893 37.5005L220.894 37.498C221.812 35.2679 222.594 32.8385 222.923 30.3927L222.93 30.3433L222.897 30.3056C221.814 29.0546 220.925 27.6475 220.261 26.1318C219.952 25.4004 219.717 24.3663 219.849 23.5265C219.915 23.1082 220.07 22.7472 220.342 22.4922C220.612 22.2387 221.011 22.0782 221.589 22.0835L221.589 22.0835C222.575 22.0919 223.22 22.6518 223.65 23.4281C224.083 24.2082 224.292 25.1949 224.402 26.0193C224.56 27.268 224.574 28.5307 224.446 29.7828L224.441 29.8312L224.474 29.8676C226.387 32.0163 228.619 33.8802 230.824 35.7207C231.028 35.8911 231.232 36.0612 231.435 36.2313ZM215.123 46.1531L215.129 46.1491L215.134 46.1444C217.005 44.5549 218.448 42.4691 219.594 40.2651L219.721 40.0191L219.459 40.1096C218.909 40.2998 218.362 40.493 217.822 40.7154C215.799 41.5136 213.576 42.4913 211.986 44.0568C211.632 44.4027 211.242 44.8941 211.081 45.408C211 45.6666 210.975 45.9365 211.048 46.1976C211.122 46.4601 211.291 46.7029 211.579 46.9106L211.579 46.9107C212.091 47.2804 212.775 47.2158 213.412 47.0086C214.055 46.7995 214.685 46.4346 215.123 46.1531ZM222.39 37.5533L222.307 37.7574L222.52 37.7024C224.553 37.1792 226.616 36.787 228.699 36.5284C228.699 36.5284 228.699 36.5283 228.699 36.5283L229.183 36.4709L229.436 36.4408L229.241 36.2765L228.958 36.0377L228.958 36.0376L228.876 35.9685C227.356 34.6899 225.752 33.3418 224.301 31.8707L224.156 31.7239L224.114 31.9259C223.713 33.8506 223.136 35.7344 222.39 37.5533ZM238.302 41.634L238.321 41.6408H238.323C238.665 41.7641 239.305 41.9444 239.846 41.9397C240.12 41.9372 240.389 41.8875 240.578 41.7379C240.777 41.5805 240.864 41.3319 240.81 40.9908L240.81 40.9907C240.697 40.2844 240.17 39.6895 239.543 39.231C238.912 38.7704 238.161 38.4337 237.564 38.2483L237.562 38.2478C236.515 37.943 235.436 37.7655 234.347 37.7193C234.031 37.7016 233.713 37.6883 233.396 37.6794L233.097 37.6711L233.318 37.8719C234.068 38.5512 234.81 39.2152 235.567 39.8792C236.369 40.5835 237.277 41.2576 238.302 41.634Z" fill="#5158F5" stroke="#5158F5" stroke-width="0.221186"/>
<path d="M283.361 108.455L283.361 108.455C283.199 108.283 283.146 108.094 283.162 107.919C283.178 107.74 283.266 107.568 283.396 107.437C283.527 107.306 283.695 107.223 283.865 107.212C284.032 107.201 284.211 107.26 284.372 107.431L284.372 107.432L290.837 114.303C290.837 114.303 290.837 114.303 290.837 114.304C291.152 114.643 291.063 115.066 290.801 115.329C290.671 115.46 290.503 115.544 290.333 115.555C290.166 115.566 289.988 115.507 289.826 115.336L283.361 108.455Z" fill="#5158F5" stroke="#5158F5" stroke-width="0.221186"/>
<path d="M296.769 105.572L296.769 105.572L288.018 102.727C287.583 102.585 287.453 102.172 287.551 101.814C287.6 101.635 287.705 101.481 287.846 101.389C287.985 101.299 288.168 101.264 288.392 101.336C288.392 101.336 288.392 101.336 288.392 101.336L297.14 104.183L297.14 104.183C297.578 104.325 297.709 104.738 297.611 105.096C297.562 105.275 297.458 105.429 297.316 105.521C297.177 105.61 296.994 105.645 296.769 105.572Z" fill="#5158F5" stroke="#5158F5" stroke-width="0.221186"/>
<path d="M290.803 95.5573L299.663 93.0801C299.663 93.0801 299.663 93.0801 299.663 93.0801C299.889 93.0167 300.027 92.8842 300.1 92.7281C300.173 92.5692 300.182 92.3787 300.132 92.2004C300.082 92.0221 299.976 91.8639 299.829 91.7667C299.686 91.6712 299.497 91.6299 299.267 91.6939L290.803 95.5573ZM290.803 95.5573C290.575 95.6208 290.388 95.5793 290.246 95.4839C290.102 95.3868 289.996 95.2288 289.947 95.0506C289.899 94.8725 289.908 94.682 289.982 94.5232C290.056 94.3671 290.194 94.2345 290.42 94.1711L299.267 91.6939L290.803 95.5573Z" fill="#5158F5" stroke="#5158F5" stroke-width="0.221186"/>
</g>
<path d="M436.012 115.941L451.71 154.169L452.311 154.176C453.587 152.933 455.295 152.233 457.076 152.221L455.153 147.572L445.026 123.111C443.978 120.576 442.952 118.028 441.88 115.503C440.572 112.418 437.417 111.467 434.334 111.86L436.012 115.941Z" fill="#92D3C2"/>
<path d="M431.803 111.514L447.728 150.32C448.472 152.134 449.217 153.947 449.963 155.762C449.972 155.783 449.982 155.803 449.995 155.822C450.002 155.84 450.011 155.857 450.021 155.874C450.104 156.05 450.243 156.195 450.416 156.285C450.589 156.375 450.786 156.406 450.978 156.373C451.524 156.372 452.069 156.431 452.601 156.39C452.925 156.38 453.241 156.283 453.514 156.11C453.922 155.868 453.569 156.025 453.713 155.885C454.321 155.269 455.076 154.82 455.907 154.581C456.739 154.341 457.618 154.319 458.46 154.517C458.668 154.575 458.888 154.573 459.095 154.51C459.301 154.447 459.486 154.326 459.626 154.162C459.766 153.997 459.855 153.796 459.884 153.582C459.913 153.367 459.88 153.15 459.789 152.954L452.452 135.213C449.575 128.256 446.788 121.251 443.813 114.334C441.938 109.967 436.855 108.826 432.562 109.886C432.392 109.924 432.234 110 432.098 110.109C431.963 110.217 431.854 110.356 431.781 110.513C431.707 110.67 431.671 110.842 431.675 111.016C431.679 111.19 431.723 111.36 431.803 111.514ZM441.89 115.498C442.962 118.024 443.988 120.572 445.036 123.107L455.161 147.577L457.084 152.226C455.302 152.237 453.595 152.938 452.319 154.18L451.718 154.174L436.012 115.941L434.331 111.848C437.42 111.473 440.577 112.411 441.885 115.495L441.89 115.498Z" fill="#020D3E"/>
<g clip-path="url(#clip1_403_12117)">
<path d="M402.393 157.734C403.157 161.846 406.005 165.82 410.393 166.144C410.478 166.159 410.564 166.165 410.65 166.162L447.207 164.837L451.984 164.662C452.709 165.392 453.579 165.963 454.537 166.337C455.495 166.712 456.52 166.882 457.548 166.837C458.576 166.792 459.583 166.534 460.504 166.077C461.426 165.621 462.243 164.977 462.901 164.187L473.115 163.967C473.987 165.964 475.397 167.679 477.187 168.922C478.977 170.164 481.077 170.885 483.253 171.003C485.429 171.121 487.595 170.633 489.509 169.592C491.423 168.551 493.011 166.999 494.094 165.108C498.672 157.067 492.301 146.79 483.013 147.487C480.633 147.682 478.368 148.587 476.51 150.086C474.652 151.585 473.287 153.608 472.594 155.892L463.814 156.449C463.31 155.436 462.58 154.553 461.68 153.867C460.78 153.181 459.735 152.712 458.625 152.495C457.515 152.277 456.369 152.318 455.277 152.614C454.186 152.91 453.176 153.453 452.328 154.201L409.646 156.105L403.539 156.378C403.368 156.373 403.198 156.406 403.042 156.475C402.886 156.544 402.748 156.648 402.637 156.779C402.527 156.909 402.448 157.063 402.406 157.229C402.363 157.394 402.359 157.567 402.393 157.734ZM422.936 157.741L450.101 156.524C450.95 156.485 451.835 156.51 452.673 156.419C452.973 156.4 453.263 156.302 453.514 156.135C454.473 155.5 455.121 154.826 456.328 154.61C458.933 154.148 461.194 155.727 462.102 158.117C462.187 158.296 462.32 158.448 462.487 158.556C462.653 158.663 462.846 158.723 463.044 158.727L473.395 158.072C473.865 158.044 474.383 157.806 474.508 157.296C476.338 149.72 486.071 146.986 491.223 153.133C496.026 158.867 492.333 167.908 484.935 168.75C480.446 169.26 476.402 166.496 474.826 162.35C474.739 162.172 474.605 162.02 474.438 161.913C474.272 161.805 474.079 161.745 473.881 161.739C470.122 161.819 466.239 161.607 462.504 161.985C461.676 162.068 461.481 162.501 460.931 163.089C460.047 164.038 458.835 164.614 457.541 164.699C456.288 164.77 455.052 164.382 454.063 163.609C453.515 163.177 453.2 162.542 452.466 162.442C451.731 162.342 450.813 162.504 450.045 162.531L420.183 163.61L410.739 163.952C407.683 163.826 405.732 161.305 404.877 158.563L422.936 157.741Z" fill="#020D3E"/>
<path d="M410.747 163.937L420.192 163.595L450.054 162.517C450.821 162.489 451.712 162.326 452.474 162.427C453.237 162.527 453.523 163.162 454.071 163.594C455.06 164.367 456.296 164.755 457.55 164.684C458.843 164.599 460.056 164.023 460.939 163.074C461.486 162.491 461.681 162.058 462.513 161.97C466.248 161.592 470.131 161.804 473.889 161.724C474.087 161.73 474.28 161.79 474.447 161.898C474.613 162.005 474.747 162.157 474.834 162.335C476.401 166.475 480.455 169.245 484.943 168.735C492.341 167.893 496.035 158.852 491.231 153.118C486.086 146.961 476.347 149.705 474.517 157.281C474.392 157.791 473.874 158.029 473.403 158.057L463.053 158.712C462.855 158.708 462.661 158.649 462.495 158.541C462.329 158.433 462.195 158.281 462.11 158.102C461.202 155.712 458.941 154.133 456.337 154.595C455.134 154.814 454.481 155.485 453.522 156.12C453.272 156.287 452.982 156.385 452.681 156.404C451.837 156.505 450.952 156.48 450.109 156.509L422.944 157.726L404.895 158.533C405.743 161.291 407.692 163.811 410.747 163.937ZM478.464 155.47C480.557 152.665 484.41 151.744 487.453 153.694C488.882 154.662 489.875 156.151 490.219 157.842C490.563 159.533 490.231 161.292 489.293 162.741C488.356 164.19 486.889 165.214 485.205 165.594C483.522 165.974 481.756 165.679 480.288 164.773C477.258 162.814 476.527 158.903 478.22 155.847C478.261 155.784 478.301 155.722 478.343 155.657C478.385 155.592 478.421 155.531 478.469 155.474L478.464 155.47ZM458.247 158.023C458.559 158.224 458.805 158.514 458.953 158.855C459.101 159.196 459.145 159.574 459.078 159.94C459.011 160.306 458.838 160.643 458.579 160.911C458.32 161.178 457.988 161.362 457.624 161.44C457.261 161.519 456.882 161.487 456.536 161.35C456.191 161.213 455.893 160.977 455.682 160.671C455.471 160.365 455.355 160.003 455.349 159.631C455.343 159.26 455.448 158.894 455.65 158.582C455.784 158.374 455.958 158.195 456.161 158.054C456.365 157.914 456.594 157.815 456.836 157.763C457.077 157.712 457.327 157.708 457.57 157.753C457.813 157.799 458.045 157.891 458.252 158.026L458.247 158.023Z" fill="#92D3C2"/>
<path d="M455.655 158.585C455.857 158.273 456.147 158.027 456.488 157.879C456.829 157.731 457.207 157.688 457.573 157.754C457.939 157.821 458.277 157.995 458.544 158.254C458.811 158.513 458.995 158.846 459.073 159.209C459.151 159.573 459.12 159.952 458.982 160.298C458.845 160.643 458.608 160.941 458.302 161.152C457.995 161.363 457.633 161.478 457.261 161.483C456.889 161.488 456.524 161.383 456.212 161.18C455.794 160.91 455.501 160.485 455.396 159.998C455.292 159.511 455.385 159.003 455.655 158.585Z" fill="#020D3E"/>
<path d="M462.812 174.445C462.826 174.483 462.838 174.521 462.848 174.56C462.92 174.72 462.949 174.897 462.932 175.072C462.915 175.247 462.852 175.415 462.75 175.558C462.186 176.431 461.1 177.016 460.453 177.881C459.843 178.704 459.37 179.619 459.052 180.593C458.464 182.436 458.443 184.414 458.992 186.269C461.137 193.576 471.079 195.419 475.717 189.39C480.847 182.703 475.215 173.034 466.884 174.066C466.643 174.114 466.394 174.083 466.172 173.977C465.95 173.871 465.769 173.696 465.655 173.479L462.081 165.05C461.331 165.719 460.453 166.228 459.501 166.546L462.812 174.445ZM471.748 177.989C474.693 180.053 475.696 184.008 473.705 187.109C473.244 187.857 472.638 188.504 471.923 189.015C471.208 189.525 470.399 189.887 469.542 190.081C468.685 190.274 467.798 190.294 466.934 190.14C466.069 189.987 465.244 189.662 464.506 189.185C463.769 188.708 463.134 188.088 462.639 187.363C462.144 186.637 461.799 185.82 461.624 184.96C461.449 184.099 461.447 183.212 461.619 182.351C461.791 181.49 462.134 180.671 462.626 179.944C464.627 176.85 468.668 176.153 471.748 177.989Z" fill="#92D3C2"/>
<path d="M456.968 166.26L460.467 174.602C460.249 174.786 460.039 174.986 459.839 175.186C459.319 175.714 458.847 176.286 458.428 176.897C457.359 178.467 456.685 180.271 456.464 182.156C456.243 184.042 456.48 185.953 457.157 187.727C457.833 189.501 458.928 191.086 460.348 192.345C461.768 193.605 463.472 194.503 465.314 194.963C474.392 197.166 482.493 188.086 479.167 179.323C477.305 174.415 472.461 171.555 467.352 171.798L463.447 162.585C463.361 162.407 463.227 162.256 463.06 162.148C462.893 162.04 462.701 161.98 462.502 161.974C461.555 161.995 461.354 162.71 460.725 163.3C459.889 164.057 458.838 164.535 457.718 164.669C456.973 164.788 456.709 165.639 456.968 166.26ZM462.073 165.038L465.646 173.468C465.761 173.685 465.942 173.86 466.164 173.965C466.386 174.071 466.635 174.102 466.876 174.054C475.219 173.031 480.852 182.7 475.709 189.378C471.093 195.422 461.139 193.571 458.984 186.257C458.435 184.402 458.456 182.425 459.044 180.581C459.362 179.608 459.835 178.692 460.445 177.869C461.082 176.998 462.178 176.419 462.742 175.547C462.844 175.403 462.907 175.236 462.924 175.06C462.941 174.885 462.912 174.709 462.84 174.549C462.83 174.51 462.818 174.471 462.804 174.434L459.486 166.523C460.44 166.209 461.32 165.704 462.073 165.038Z" fill="#020D3E"/>
<path d="M464.583 189.068C466.057 189.999 467.838 190.316 469.543 189.95C471.249 189.584 472.742 188.564 473.704 187.109C475.706 184.015 474.692 180.053 471.748 177.989C468.667 176.153 464.627 176.85 462.626 179.944C461.695 181.419 461.378 183.2 461.744 184.905C462.11 186.61 463.129 188.105 464.583 189.068ZM470.538 179.859C472.485 181.224 473.165 183.843 471.834 185.9C471.53 186.398 471.129 186.83 470.656 187.171C470.182 187.512 469.645 187.754 469.076 187.884C468.507 188.014 467.917 188.028 467.343 187.927C466.768 187.825 466.219 187.61 465.729 187.293C465.239 186.976 464.818 186.564 464.489 186.081C464.161 185.599 463.933 185.056 463.818 184.483C463.703 183.911 463.703 183.322 463.82 182.75C463.936 182.178 464.166 181.635 464.496 181.154C465.826 179.097 468.49 178.641 470.538 179.859Z" fill="#020D3E"/>
<path d="M478.226 155.85C476.533 158.906 477.259 162.814 480.294 164.776C481.762 165.683 483.528 165.977 485.211 165.598C486.894 165.218 488.362 164.193 489.299 162.744C490.236 161.295 490.569 159.537 490.224 157.846C489.88 156.154 488.887 154.665 487.459 153.698C484.429 151.738 480.563 152.669 478.47 155.474C478.429 155.536 478.389 155.598 478.349 155.661C478.309 155.723 478.259 155.783 478.226 155.85ZM486.249 155.568C487.19 156.211 487.842 157.197 488.066 158.314C488.291 159.431 488.07 160.592 487.451 161.549C486.832 162.506 485.864 163.183 484.753 163.437C483.642 163.69 482.476 163.5 481.503 162.906C479.444 161.574 478.986 158.913 480.207 156.862C481.575 154.911 484.192 154.237 486.249 155.568Z" fill="#020D3E"/>
<path d="M478.227 155.85C478.26 155.782 478.301 155.719 478.349 155.661C478.297 155.719 478.259 155.783 478.227 155.85Z" fill="#020D3E"/>
<path d="M478.469 155.474C478.428 155.536 478.388 155.598 478.348 155.661C478.38 155.593 478.421 155.531 478.469 155.474Z" fill="#020D3E"/>
</g>
<g clip-path="url(#clip2_403_12117)">
<path d="M91.392 62.2073C72.4633 62.0474 70.7581 37.1097 70.7253 23.2185C70.7253 21.2387 67.6552 21.2387 67.6511 23.2185C67.6142 37.1097 65.9091 62.0474 46.9844 62.2073C45.0046 62.2073 45.0005 65.2651 46.9844 65.2815C65.9091 65.4413 67.6142 90.3791 67.6511 104.27C67.6511 106.246 70.7212 106.25 70.7253 104.27C70.7581 90.3791 72.4633 65.4413 91.392 65.2815C91.7997 65.2815 92.1906 65.1195 92.4789 64.8312C92.7672 64.543 92.9291 64.152 92.9291 63.7444C92.9291 63.3367 92.7672 62.9458 92.4789 62.6575C92.1906 62.3692 91.7997 62.2073 91.392 62.2073Z" fill="#EA855E"/>
<path d="M48.2547 42.7628C48.268 42.562 48.239 42.3607 48.1699 42.1718C48.1007 41.9828 47.9928 41.8105 47.8531 41.6658C47.7134 41.521 47.5449 41.4071 47.3585 41.3313C47.1722 41.2555 46.972 41.2195 46.7709 41.2257C41.2414 41.1888 35.3391 40.1107 31.277 36.0528C27.215 31.9949 26.1411 26.0884 26.1042 20.559C26.1042 18.5833 23.0423 18.5792 23.03 20.559C22.989 26.0884 21.9151 31.9908 17.8531 36.0528C13.7911 40.1148 7.89275 41.1888 2.36332 41.2257C0.383548 41.2257 0.379449 44.2876 2.36332 44.2999C7.89275 44.3368 13.7952 45.4147 17.8531 49.4767C21.911 53.5388 22.989 59.4371 23.03 64.9665C23.03 66.9463 26.0878 66.9463 26.1042 64.9665C26.1411 59.4371 27.2191 53.5347 31.277 49.4767C35.335 45.4188 41.2414 44.3368 46.7709 44.2999C46.972 44.306 47.1722 44.27 47.3585 44.1942C47.5449 44.1185 47.7134 44.0045 47.8531 43.8598C47.9928 43.715 48.1007 43.5427 48.1699 43.3537C48.239 43.1648 48.268 42.9635 48.2547 42.7628Z" fill="#EA855E"/>
</g>
<defs>
<clipPath id="clip0_403_12117">
<rect width="214" height="197.387" fill="white" transform="translate(131.877 0.549316)"/>
</clipPath>
<clipPath id="clip1_403_12117">
<rect width="81.9767" height="63.8299" fill="white" transform="translate(468.451 204.785) rotate(-147.108)"/>
</clipPath>
<clipPath id="clip2_403_12117">
<rect width="92" height="86.6796" fill="white" transform="translate(0.876953 19.0757)"/>
</clipPath>
</defs>
</svg>
